<svg xmlns="http://www.w3.org/2000/svg" viewBox="0 0 32 32" fill="none">
  <defs>
    <linearGradient id="bitcoinGradient" x1="0%" y1="0%" x2="100%" y2="100%">
      <stop offset="0%" style="stop-color:#F7931A;stop-opacity:1" />
      <stop offset="100%" style="stop-color:#FF8C00;stop-opacity:1" />
    </linearGradient>
  </defs>
  <circle cx="16" cy="16" r="16" fill="url(#bitcoinGradient)"/>
  <path d="M21.5 14.5c.3-2-1.2-3.1-3.3-3.8l.7-2.7-1.7-.4-.7 2.7c-.4-.1-.9-.2-1.4-.3l.7-2.8-1.7-.4-.7 2.7c-.4-.1-.7-.2-1.1-.2l-2.3-.6-.4 1.8s1.2.3 1.2.3c.7.2.8.6.8 1l-1.9 7.6c-.1.2-.3.5-.8.4 0 0-1.2-.3-1.2-.3l-.8 1.9 2.2.5 1.2.3-.7 2.8 1.7.4.7-2.8c.5.1.9.2 1.4.4l-.7 2.8 1.7.4.7-2.8c2.9.5 5.1.3 6-2.3.7-2.1 0-3.3-1.6-4.1 1.1-.2 1.9-1 2.1-2.5zm-3.8 5.4c-.5 2.1-4.1.9-5.2.7l.9-3.7c1.1.3 4.8.9 4.3 3zm.5-5.5c-.5 1.9-3.4.9-4.4.7l.8-3.4c1 .2 4 .7 3.6 2.7z" 
        fill="white"/>
</svg>
